<svg width="64" height="64" viewBox="0 0 64 64" xmlns="http://www.w3.org/2000/svg">
<path d="M18.4456 46H46.5544C47.1166 46 47.5382 45.7451 47.8193 45.2353C48.1004 44.7255 48.0535 44.2389 47.6788 43.7754L39.9488 33.5562C39.6677 33.1854 39.293 33 38.8245 33C38.356 33 37.9812 33.1854 37.7001 33.5562L30.3918 43.2193L25.1917 36.3369C24.9106 35.9661 24.5358 35.7807 24.0674 35.7807C23.5989 35.7807 23.2241 35.9661 22.943 36.3369L17.3212 43.7754C16.9465 44.2389 16.8996 44.7255 17.1807 45.2353C17.4618 45.7451 17.8834 46 18.4456 46Z" stroke="none"/>
<path d="M54 10H10V54H54V10Z" fill="none"/>
</svg>
