<svg width="64" height="64" viewBox="0 0 64 64" xmlns="http://www.w3.org/2000/svg">
<path d="M56 19.608V44.392C56.0001 44.6777 55.9238 44.9582 55.7789 45.2044C55.634 45.4506 55.4258 45.6535 55.176 45.792L32.776 58.2347C32.5386 58.3664 32.2715 58.4355 32 58.4355C31.7285 58.4355 31.4614 58.3664 31.224 58.2347L8.824 45.792C8.57418 45.6535 8.36601 45.4506 8.22111 45.2044C8.07621 44.9582 7.99986 44.6777 8 44.392V19.608C8.00034 19.3228 8.07691 19.0429 8.22178 18.7972C8.36666 18.5515 8.57458 18.349 8.824 18.2107L31.224 5.76535C31.4614 5.63367 31.7285 5.56458 32 5.56458C32.2715 5.56458 32.5386 5.63367 32.776 5.76535L55.176 18.2107C55.4254 18.349 55.6333 18.5515 55.7782 18.7972C55.9231 19.0429 55.9997 19.3228 56 19.608V19.608Z" stroke-width="3" stroke-linecap="round" stroke-linejoin="round" fill="none"/>
<path d="M9.40799 19.4506L31.2213 31.568C31.4591 31.7001 31.7266 31.7695 31.9987 31.7695C32.2707 31.7695 32.5382 31.7001 32.776 31.568L54.6667 19.408M32 56V32" stroke-width="3" stroke-linecap="round" stroke-linejoin="round" fill="none"/>
</svg>
