<svg width="64" height="64" viewBox="0 0 64 64" xmlns="http://www.w3.org/2000/svg">
<path d="M26.1 49C27.5356 49 28.7444 48.5125 29.7267 47.5375C30.7089 46.5625 31.2 45.3625 31.2 43.9375V35.5H35.7333C36.3756 35.5 36.9143 35.284 37.3495 34.852C37.7832 34.4215 38 33.8875 38 33.25C38 32.6125 37.7832 32.0777 37.3495 31.6457C36.9143 31.2152 36.3756 31 35.7333 31H31.2C30.5578 31 30.0198 31.2152 29.5861 31.6457C29.1509 32.0777 28.9333 32.6125 28.9333 33.25V39.7188C28.5178 39.4188 28.0743 39.2027 27.6028 39.0707C27.1298 38.9402 26.6289 38.875 26.1 38.875C24.6644 38.875 23.4556 39.3625 22.4733 40.3375C21.4911 41.3125 21 42.5125 21 43.9375C21 45.3625 21.4911 46.5625 22.4733 47.5375C23.4556 48.5125 24.6644 49 26.1 49Z" fill="none"/>
<path d="M49 22.1429V55H14V9H35.875M49 22.1429H35.875V9M49 22.1429L35.875 9" stroke-width="3" stroke-linejoin="round" fill="none"/>
</svg>
