<svg width="20" height="20" viewBox="0 0 20 20" xmlns="http://www.w3.org/2000/svg">
    <path stroke="none" d="M 20.0056 10.256 C 20.0061 8.5926 19.5917 6.9554 18.7999 5.4926 C 18.008 4.0298 16.8638 2.7876 15.4708 1.8786 C 14.0777 0.9695 12.48 0.4223 10.8222 0.2866 C 9.1643 0.1508 7.4988 0.4308 5.9765 1.101 C 4.4541 1.7713 3.1231 2.8108 2.1038 4.1253 C 1.0845 5.4398 0.4092 6.9878 0.1391 8.6291 C -0.131 10.2704 0.0126 11.9532 0.5569 13.5249 C 1.1012 15.0967 2.029 16.508 3.2563 17.6307 L 3.3813 17.7461 C 5.2093 19.3629 7.5655 20.2554 10.006 20.2554 C 12.4464 20.2554 14.8026 19.3629 16.6308 17.7461 L 16.7558 17.6307 C 17.7808 16.6953 18.5993 15.5562 19.159 14.2863 C 19.7185 13.0164 20.0069 11.6437 20.0056 10.256 Z M 1.5448 10.256 C 1.5443 8.8856 1.8767 7.5356 2.5133 6.3221 C 3.1499 5.1085 4.0718 4.0678 5.1996 3.2894 C 6.3274 2.5109 7.6275 2.018 8.9879 1.8531 C 10.3483 1.6883 11.7285 1.8563 13.0096 2.3427 C 14.2908 2.8292 15.4345 3.6196 16.3427 4.6459 C 17.2507 5.6722 17.896 6.9037 18.2229 8.2345 C 18.5499 9.5653 18.5486 10.9557 18.2193 12.2859 C 17.8901 13.6161 17.2426 14.8465 16.3327 15.8712 C 15.475 14.6274 14.2668 13.6668 12.8617 13.1117 C 13.6153 12.5181 14.1652 11.7044 14.435 10.7838 C 14.7048 9.8631 14.6809 8.8813 14.3669 7.9749 C 14.0527 7.0684 13.4639 6.2824 12.6824 5.7261 C 11.9008 5.1698 10.9653 4.8708 10.006 4.8708 C 9.0467 4.8708 8.1112 5.1698 7.3296 5.7261 C 6.5481 6.2824 5.9593 7.0684 5.6452 7.9749 C 5.3311 8.8813 5.3073 9.8631 5.577 10.7838 C 5.8468 11.7044 6.3967 12.5181 7.1504 13.1117 C 5.7452 13.6668 4.537 14.6274 3.6793 15.8712 C 2.3019 14.3254 1.542 12.3265 1.5448 10.256 Z M 6.9292 9.4868 C 6.9292 8.8783 7.1097 8.2834 7.4477 7.7774 C 7.7858 7.2714 8.2663 6.8771 8.8286 6.6442 C 9.3908 6.4113 10.0094 6.3504 10.6063 6.4691 C 11.2031 6.5878 11.7514 6.8809 12.1816 7.3112 C 12.6119 7.7415 12.905 8.2897 13.0237 8.8865 C 13.1424 9.4834 13.0815 10.102 12.8486 10.6642 C 12.6157 11.2264 12.2214 11.707 11.7154 12.0451 C 11.2094 12.3832 10.6145 12.5636 10.006 12.5636 C 9.1908 12.561 8.4096 12.2361 7.8332 11.6596 C 7.2567 11.0831 6.9317 10.302 6.9292 9.4868 Z M 4.8235 16.9384 C 5.3801 16.069 6.1466 15.3535 7.0522 14.858 C 7.9579 14.3625 8.9736 14.1027 10.006 14.1027 C 11.0384 14.1027 12.0541 14.3625 12.9597 14.858 C 13.8654 15.3535 14.6319 16.069 15.1885 16.9384 C 13.7067 18.0908 11.8832 18.7164 10.006 18.7164 C 8.1289 18.7164 6.3053 18.0908 4.8235 16.9384 Z"/>
</svg>
