<svg stroke="white" width="20" height="19" viewBox="0 0 20 19" fill="white" xmlns="http://www.w3.org/2000/svg">
<path fill-rule="evenodd" clip-rule="evenodd" d="M0.25 1C0.25 0.585786 0.585786 0.25 1 0.25H3.25C3.59643 0.25 3.89778 0.487266 3.97906 0.82402L4.56464 3.25H19C19.255 3.25 19.4925 3.37956 19.6306 3.59396C19.7686 3.80836 19.7883 4.07821 19.6828 4.31035L15.9328 12.5604C15.8111 12.8281 15.5441 13 15.25 13H6.25C5.9126 13 5.61673 12.7747 5.52701 12.4494L3.25114 4.19945C3.249 4.19166 3.24697 4.18383 3.24508 4.17598L2.6595 1.75H1C0.585786 1.75 0.25 1.41421 0.25 1ZM4.95905 4.75L6.82112 11.5H14.7671L17.8352 4.75H4.95905Z"/>
<path d="M7.75 16.75C7.75 17.5784 7.07843 18.25 6.25 18.25C5.42157 18.25 4.75 17.5784 4.75 16.75C4.75 15.9216 5.42157 15.25 6.25 15.25C7.07843 15.25 7.75 15.9216 7.75 16.75Z"/>
<path d="M16.75 16.75C16.75 17.5784 16.0784 18.25 15.25 18.25C14.4216 18.25 13.75 17.5784 13.75 16.75C13.75 15.9216 14.4216 15.25 15.25 15.25C16.0784 15.25 16.75 15.9216 16.75 16.75Z"/>
</svg>
