<svg width="20" height="20" viewBox="0 0 385 334" fill="none" xmlns="http://www.w3.org/2000/svg">

    <path d="M219.551 153.225C220.046 159.646 228.817 197.677 233.141 215.89C236.436 227.105 246.114 252.192 258.468 262.811C270.823 273.43 265.881 291.725 261.866 299.545C268.352 300.78 280.089 316.523 264.337 334.118C241.572 359.547 149.439 349.553 129.054 346.466C112.746 343.996 110.316 320.947 111.14 309.732C115.155 293.68 129.363 297.208 126.583 295.223C119.664 290.284 136.878 243.775 146.35 221.137C142.644 193.973 157.144 157.856 156.234 156.004C149.562 142.421 153.454 133.675 156.234 131C171.677 123.591 165.809 140.766 172.295 138.408C192.68 131 205.344 141.187 206.27 138.408C207.197 135.63 209.977 124.517 219.551 131C229.126 137.482 218.934 145.199 219.551 153.225Z" fill="#1F2127" stroke="#1F2127" stroke-width="0.732686"/>
    <path d="M11.6686 6.66667H25.002V18.3333H11.6686V6.66667Z" fill="#2D3039"/>
</svg>
