<svg viewBox="0 0 595 228" fill="none" xmlns="http://www.w3.org/2000/svg">
<path d="M5.06551 130.199C172.911 87.1502 274.462 70.6709 464.153 57.0241C223.319 30.6103 110.573 79.4322 5.06551 130.199Z" fill="#1B6D56"/>
<path d="M11.7987 150.634C168.402 101.498 366.461 72.8207 572.593 73.3069C375.912 102.046 184.175 136.026 11.7987 150.634Z" fill="#1B6D56"/>
<path d="M94.1463 165.855C262.514 163.326 404.012 142.659 583.25 106.908C376.507 110.345 287.669 129.443 94.1463 165.855Z" fill="#EDEDED"/>
<path d="M207.148 175.82C351.143 163.251 459.438 152.943 587.848 129.37C491.943 175.706 349.053 194.115 207.148 175.82Z" fill="#EDEDED"/>
<!--<path d="M5.06551 130.199C172.911 87.1502 274.462 70.6709 464.153 57.0241C223.319 30.6103 110.573 79.4322 5.06551 130.199Z" stroke="#EDEDED" stroke-width="0.800299"/>-->
<!--<path d="M11.7987 150.634C168.402 101.498 366.461 72.8207 572.593 73.3069C375.912 102.046 184.175 136.026 11.7987 150.634Z" stroke="#EDEDED" stroke-width="0.800299"/>-->
<!--<path d="M94.1463 165.855C262.514 163.326 404.012 142.659 583.25 106.908C376.507 110.345 287.669 129.443 94.1463 165.855Z" stroke="#EDEDED" stroke-width="0.800299"/>-->
<!--<path d="M207.148 175.82C351.143 163.251 459.438 152.943 587.848 129.37C491.943 175.706 349.053 194.115 207.148 175.82Z" stroke="#EDEDED" stroke-width="0.800299"/>-->
<!--<g mask="url(#mask0_554_25263)">-->
<!--<rect x="4" y="-16" width="616" height="234" fill="#D9D9D9"/>-->
<!--<rect x="-415" y="240" width="511.825" height="33.2167" transform="rotate(-9.16571 -415 240)" fill="#1B6D56"/>-->
<!--<rect x="-187" y="224.461" width="392.34" height="33.2167" transform="rotate(-7.38964 -187 224.461)" fill="#1B6D56"/>-->
<!--</g>-->
</svg>
