<svg width="1173" height="1245" viewBox="0 0 1173 1245" fill="none" xmlns="http://www.w3.org/2000/svg">
<g clip-path="url(#clip0_1901_25809)">
<g opacity="0.15">
<path d="M1053.27 225.402C647.45 281.79 421.447 342.525 34.2693 503.654C436.537 177.377 749.775 194.884 1053.27 225.402Z" fill="#3B3F4A"/>
<path d="M1082.24 289.328C685.282 316.979 251.569 445.07 -137.899 662.78C293.331 536.308 725.896 429.611 1082.24 289.328Z" fill="#3B3F4A"/>
<path d="M957.327 418.112C633.239 587.798 323.017 678.809 -89.4854 767.461C309.146 560.025 516.416 519.921 957.327 418.112Z" fill="#3B3F4A"/>
<path d="M763.62 564.447C465.203 680.614 239.024 765.599 -52.3392 834.786C223.922 863.053 532.171 764.298 763.62 564.447Z" fill="#3B3F4A"/>
<path d="M1053.27 225.402C647.45 281.79 421.447 342.525 34.2693 503.654C436.537 177.377 749.775 194.884 1053.27 225.402Z" stroke="#3B3F4A" stroke-width="2.2275"/>
<path d="M1082.24 289.328C685.282 316.979 251.569 445.07 -137.899 662.78C293.331 536.308 725.896 429.611 1082.24 289.328Z" stroke="#3B3F4A" stroke-width="2.2275"/>
<path d="M957.327 418.112C633.239 587.798 323.017 678.809 -89.4854 767.461C309.146 560.025 516.416 519.921 957.327 418.112Z" stroke="#3B3F4A" stroke-width="2.2275"/>
<path d="M763.62 564.447C465.203 680.614 239.024 765.599 -52.3392 834.786C223.922 863.053 532.171 764.298 763.62 564.447Z" stroke="#3B3F4A" stroke-width="2.2275"/>
</g>
</g>
<defs>
<clipPath id="clip0_1901_25809">
<rect width="1316.72" height="770.316" fill="white" transform="matrix(-0.613989 0.789315 0.789315 0.613989 564.451 -268)"/>
</clipPath>
</defs>
</svg>
