<svg width="12" height="16" viewBox="0 0 12 16" fill="none" xmlns="http://www.w3.org/2000/svg">
<path d="M2.66797 15.5C2.43186 15.5 2.23381 15.42 2.07381 15.26C1.91381 15.1 1.83408 14.9022 1.83464 14.6667V13H1.0013C0.765194 13 0.567138 12.92 0.407138 12.76C0.247138 12.6 0.167416 12.4022 0.167972 12.1667C0.167972 11.9306 0.247972 11.7325 0.407972 11.5725C0.567972 11.4125 0.765749 11.3328 1.0013 11.3333H1.83464V9.66667H1.0013C0.765194 9.66667 0.567138 9.58667 0.407138 9.42667C0.247138 9.26667 0.167416 9.06889 0.167972 8.83334C0.167972 8.59723 0.247972 8.39917 0.407972 8.23917C0.567972 8.07917 0.765749 7.99945 1.0013 8H1.83464V1.33334C1.83464 1.09723 1.91464 0.89917 2.07464 0.739169C2.23464 0.579169 2.43242 0.499447 2.66797 0.500003H7.25131C8.52908 0.500003 9.61242 0.944447 10.5013 1.83334C11.3902 2.72222 11.8346 3.80556 11.8346 5.08334C11.8346 6.36111 11.3902 7.44445 10.5013 8.33334C9.61242 9.22223 8.52908 9.66667 7.25131 9.66667H3.5013V11.3333H6.0013C6.23742 11.3333 6.43547 11.4133 6.59547 11.5733C6.75547 11.7333 6.83519 11.9311 6.83464 12.1667C6.83464 12.4028 6.75464 12.6008 6.59464 12.7608C6.43464 12.9208 6.23686 13.0006 6.0013 13H3.5013V14.6667C3.5013 14.9028 3.4213 15.1008 3.2613 15.2608C3.10131 15.4208 2.90353 15.5006 2.66797 15.5ZM3.5013 8H7.25131C8.05686 8 8.74436 7.71528 9.31381 7.14584C9.88325 6.57639 10.168 5.88889 10.168 5.08334C10.168 4.27778 9.88325 3.59028 9.31381 3.02084C8.74436 2.45139 8.05686 2.16667 7.25131 2.16667H3.5013V8Z" fill="#393D46"/>
</svg>
