<svg width="18" height="18" viewBox="0 0 18 18" fill="none" xmlns="http://www.w3.org/2000/svg">
<path d="M7.1392 10.7333L2.95553 10.7333C2.65618 10.7333 2.36181 10.6578 2.10035 10.5139C1.83889 10.3701 1.61903 10.1627 1.46163 9.91137C1.30423 9.66009 1.21451 9.37327 1.20101 9.07816C1.1875 8.78304 1.25065 8.48941 1.38446 8.22515L4.4581 2.15849C4.604 1.87035 4.82836 1.62803 5.10602 1.45872C5.38369 1.28941 5.70366 1.1998 6.03005 1.19995L9.55772 1.19995C9.70086 1.19995 9.844 1.21728 9.98363 1.25195L13.2865 2.06662M7.1392 10.7333L7.1392 15.0666C7.1392 15.5263 7.32424 15.9672 7.65362 16.2923C7.98301 16.6173 8.42975 16.7999 8.89556 16.7999H8.97899C9.41808 16.7999 9.77375 16.4489 9.77375 16.0156C9.77358 15.3967 9.95939 14.7917 10.3077 14.2771L13.2865 9.86662L13.2865 2.06662M7.1392 10.7333H8.89556M13.2865 2.06662L15.0429 2.06662C15.5087 2.06662 15.9554 2.24924 16.2848 2.5743C16.6142 2.89936 16.7992 3.34024 16.7992 3.79995V8.99995C16.7992 9.45966 16.6142 9.90054 16.2848 10.2256C15.9554 10.5507 15.5087 10.7333 15.0429 10.7333H12.8474" stroke-width="1.66667" stroke-linecap="round" stroke-linejoin="round"/>
</svg>
