<svg width="1380" height="502" viewBox="0 0 1380 502" fill="none" xmlns="http://www.w3.org/2000/svg">
<g filter="url(#filter0_d_1905_26977)">
<path d="M30 94C30 58.6538 58.6538 30 94 30H1286C1321.35 30 1350 58.6538 1350 94V408C1350 443.346 1321.35 472 1286 472H662C653.5 453.5 652 440.5 662 421C641 429 630.5 449.5 630.5 472C618.5 461 615 452.5 618.5 432C604.5 440 598 457 600.5 472H94C58.6538 472 30 443.346 30 408V94Z" fill="#1B6D56"/>
</g>
<defs>
<filter id="filter0_d_1905_26977" x="0" y="0" width="1380" height="502" filterUnits="userSpaceOnUse" color-interpolation-filters="sRGB">
<feFlood flood-opacity="0" result="BackgroundImageFix"/>
<feColorMatrix in="SourceAlpha" type="matrix" values="0 0 0 0 0 0 0 0 0 0 0 0 0 0 0 0 0 0 127 0" result="hardAlpha"/>
<feOffset/>
<feGaussianBlur stdDeviation="15"/>
<feComposite in2="hardAlpha" operator="out"/>
<feColorMatrix type="matrix" values="0 0 0 0 0.121569 0 0 0 0 0.129412 0 0 0 0 0.152941 0 0 0 1 0"/>
<feBlend mode="normal" in2="BackgroundImageFix" result="effect1_dropShadow_1905_26977"/>
<feBlend mode="normal" in="SourceGraphic" in2="effect1_dropShadow_1905_26977" result="shape"/>
</filter>
    <path d="M 0 0 C -10 12.7037 -10 24.3027 -6.5 43.6344 C -0.5 22.6457 9 8.285 22.5 0 C 14 13.256 16.5 23.7504 19.5 39.768 C 26 19.3317 32.5 8.285 46 0 C 40.885 11.6113 39.534 18.8367 46 35.9017 C 50.924 15.5928 56.474 8.1509 70 0 Z"/>
</defs>
</svg>
