<svg width="18.05" height="16.32" viewBox="0 0 18.03 16.32" fill="white" xmlns="http://www.w3.org/2000/svg">
<path d="M 8.1321 15.4821 L 8.131 15.4811 C 5.5939 13.1663 3.5482 11.2957 2.128 9.5475 C 0.7163 7.8097 0 6.2838 0 4.6709 C 0 2.0361 2.0383 0 4.6378 0 C 6.1138 0 7.5442 0.6952 8.4753 1.7868 L 9.0459 2.4557 L 9.6165 1.7868 C 10.5476 0.6952 11.978 0 13.4541 0 C 16.0536 0 18.0918 2.0361 18.0459 5 C 18.0918 6.2838 17.3756 7.8097 15.9638 9.5475 C 14.5436 11.2957 12.498 13.1663 9.9608 15.4811 L 9.9597 15.4821 L 9.0459 16.3192 L 8.1321 15.4821 Z"/>
</svg>
