<svg viewBox="0 0 241 211" fill="none" xmlns="http://www.w3.org/2000/svg">
    <g clip-path="url(#clip0_1901_25855)">
        <path d="M-5.73322 26.1598C-5.73322 16.0486 2.46354 7.85184 12.5747 7.85184H229.363C239.474 7.85184 247.671 16.0486 247.671 26.1598V192.755C247.671 202.867 239.474 211.063 229.363 211.063H12.5748C2.46356 211.063 -5.73322 202.867 -5.73322 192.755V26.1598Z"
              fill="#A4C5BB"/>
        <path d="M-2.87851 179.004C-2.87851 171.373 1.85402 164.543 8.99813 161.863L43.32 148.985C46.7907 147.683 50.5748 147.465 54.172 148.36L92.8688 157.989C95.8381 158.728 98.9452 158.71 101.906 157.939L162.129 142.246C165.725 141.309 169.52 141.488 173.012 142.759L200.343 152.715C201.582 153.166 202.866 153.482 204.173 153.657L228.943 156.984C238.031 158.204 244.815 165.959 244.815 175.129V192.756C244.815 202.867 236.618 211.064 226.507 211.064H15.4295C5.31824 211.064 -2.87851 202.867 -2.87851 192.756V179.004Z"
              fill="#76A79A"/>
        <g filter="url(#filter0_d_1901_25855)">
            <path d="M-15.1992 18.308C-15.1992 8.19677 -7.00243 0 3.10877 0H236.501C246.613 0 254.809 8.19675 254.809 18.308L254.809 192.756C254.809 202.867 246.613 211.064 236.501 211.064H216.397V162.785C216.397 160.362 216.877 157.964 217.811 155.728L227.985 131.372C230.199 126.072 229.798 120.041 226.901 115.082L218.896 101.375C217.259 98.5732 216.397 95.3865 216.397 92.1416V76.3601C216.397 68.7344 211.67 61.9073 204.532 59.2234L161.121 42.9008C159.834 42.4169 158.605 41.7896 157.459 41.0308L116.478 13.9055C113.266 11.7789 109.065 11.8917 105.971 14.1876L44.1781 60.0403C40.9906 62.4056 38.6581 65.7426 37.5321 69.5487L29.0262 98.2985C28.2355 100.971 26.8452 103.428 24.9611 105.481L11.6099 120.034C7.44614 124.573 5.84348 130.901 7.34497 136.874L25.9938 211.064H3.1088C-7.00241 211.064 -15.1992 202.867 -15.1992 192.756L-15.1992 18.308Z"
                  fill="#C6DAD4"/>
        </g>
        <path d="M132.938 77.4445C133.246 81.4555 138.726 105.213 141.427 116.59C143.485 123.596 149.531 139.267 157.249 145.901C164.966 152.534 161.879 163.963 159.371 168.848C163.423 169.62 170.755 179.454 160.915 190.446C146.694 206.331 89.1394 200.087 76.4051 198.159C66.2176 196.616 64.6998 182.218 65.2143 175.212C67.7226 165.184 76.598 167.388 74.8615 166.149C70.5396 163.063 81.293 134.009 87.2099 119.868C84.8946 102.899 93.9524 80.337 93.3841 79.18C89.2165 70.6953 91.6476 65.2316 93.3841 63.5604C103.031 58.9323 99.3654 69.661 103.417 68.1884C116.151 63.5604 124.062 69.9239 124.641 68.1884C125.22 66.4529 126.956 59.5108 132.938 63.5604C138.919 67.6099 132.552 72.4308 132.938 77.4445Z"
              fill="#1B6D56" stroke="#1B6D56" stroke-width="0.457699"/>
    </g>
    <defs>
        <filter id="filter0_d_1901_25855" x="-42.0212" y="-26.822" width="323.653" height="264.708"
                filterUnits="userSpaceOnUse" color-interpolation-filters="sRGB">
            <feFlood flood-opacity="0" result="BackgroundImageFix"/>
            <feColorMatrix in="SourceAlpha" type="matrix" values="0 0 0 0 0 0 0 0 0 0 0 0 0 0 0 0 0 0 127 0"
                           result="hardAlpha"/>
            <feOffset/>
            <feGaussianBlur stdDeviation="13.411"/>
            <feComposite in2="hardAlpha" operator="out"/>
            <feColorMatrix type="matrix" values="0 0 0 0 0.121569 0 0 0 0 0.129412 0 0 0 0 0.152941 0 0 0 0.2 0"/>
            <feBlend mode="normal" in2="BackgroundImageFix" result="effect1_dropShadow_1901_25855"/>
            <feBlend mode="normal" in="SourceGraphic" in2="effect1_dropShadow_1901_25855" result="shape"/>
        </filter>
        <clipPath id="clip0_1901_25855">
            <rect width="240.504" height="211" fill="white"/>
        </clipPath>
    </defs>
</svg>
