<svg width="24" height="21" viewBox="0 0 24 21" fill="none" xmlns="http://www.w3.org/2000/svg">
<path d="M3 9.5625C3 9.34089 3.04488 9.12146 3.13209 8.91672C3.21929 8.71198 3.34711 8.52596 3.50824 8.36926C3.66937 8.21256 3.86066 8.08826 4.07119 8.00345C4.28172 7.91865 4.50737 7.875 4.73524 7.875C4.96312 7.875 5.18876 7.91865 5.39929 8.00345C5.60982 8.08826 5.80111 8.21256 5.96224 8.36926C6.12338 8.52596 6.25119 8.71198 6.3384 8.91672C6.4256 9.12146 6.47048 9.34089 6.47048 9.5625V16.3125C6.47048 16.7601 6.28766 17.1893 5.96224 17.5057C5.63682 17.8222 5.19546 18 4.73524 18C4.27503 18 3.83366 17.8222 3.50824 17.5057C3.18282 17.1893 3 16.7601 3 16.3125V9.5625ZM7.62731 9.37463V15.4834C7.62711 15.9015 7.74672 16.3114 7.97272 16.6671C8.19871 17.0228 8.52216 17.3102 8.90676 17.4971L8.9646 17.5252C9.60651 17.8372 10.3142 17.9998 11.0319 18H17.2972C17.8323 18.0002 18.3509 17.8201 18.7647 17.4902C19.1786 17.1604 19.4621 16.7013 19.5669 16.191L20.9551 9.441C21.0222 9.11461 21.014 8.7778 20.9311 8.45487C20.8481 8.13194 20.6926 7.83092 20.4756 7.57351C20.2586 7.31611 19.9856 7.10873 19.6762 6.96632C19.3668 6.82392 19.0289 6.75003 18.6866 6.75H14.5683V2.25C14.5683 1.65326 14.3245 1.08097 13.8906 0.65901C13.4567 0.237053 12.8682 0 12.2546 0C11.9478 0 11.6536 0.118526 11.4366 0.329505C11.2197 0.540483 11.0978 0.826631 11.0978 1.125V1.87538C11.0978 2.84904 10.7731 3.79644 10.1723 4.57538L8.55277 6.67462C7.95205 7.45356 7.62731 8.40096 7.62731 9.37463Z"/>
</svg>
