<svg width="127" height="34" viewBox="0 0 127 42" fill="none" xmlns="http://www.w3.org/2000/svg">
<path d="M36.7493 9.31434C36.7493 8.60122 36.3696 7.94206 35.7527 7.58427L27.9529 3.06039C27.3324 2.70047 26.5666 2.70047 25.946 3.06039L18.3746 7.4518L10.8032 3.06039C10.1827 2.70047 9.41691 2.70047 8.79637 3.06039L0.996563 7.58427C0.379698 7.94206 0 8.60122 0 9.31434V18.3785C0 19.0913 0.379412 19.7503 0.995906 20.1082L8.67283 24.5647V32.7575C8.67283 33.4715 9.0535 34.1314 9.67162 34.4888L17.3715 38.9416C17.992 39.3004 18.7569 39.2997 19.3768 38.9399L27.0438 34.4894C27.6603 34.1315 28.0397 33.4725 28.0397 32.7597V24.6015L35.7556 20.1086C36.3709 19.7504 36.7493 19.0922 36.7493 18.3803V9.31434ZM2.44995 10.7231C2.44995 10.0099 2.82965 9.35078 3.44652 8.99299L8.79637 5.89008C9.41691 5.53016 10.1827 5.53016 10.8032 5.89008L16.1531 8.99299C16.77 9.35078 17.1497 10.0099 17.1497 10.7231V16.6264C17.1497 17.3395 16.77 17.9986 16.1533 18.3564L10.5092 21.6307C9.88867 21.9906 9.1229 21.9907 8.50232 21.6309L3.44669 18.6993C2.82973 18.3415 2.44995 17.6823 2.44995 16.9691V10.7231ZM19.3802 36.1051C18.7586 36.4679 17.9901 36.4687 17.3678 36.1073L12.1553 33.0807C11.5389 32.7228 11.1595 32.0639 11.1595 31.3511V25.6025C11.1595 24.8915 11.537 24.234 12.1509 23.8755L17.3693 20.8277C17.9907 20.4648 18.7592 20.4637 19.3817 20.8248L24.5567 23.8274C25.1734 24.1852 25.553 24.8443 25.553 25.5573V31.3541C25.553 32.0653 25.1753 32.723 24.5611 33.0814L19.3802 36.1051ZM34.2993 16.9696C34.2993 17.6825 33.9198 18.3416 33.3032 18.6994L28.21 21.655C27.5896 22.0151 26.8238 22.0153 26.2031 21.6555L20.5965 18.4053C19.9795 18.0475 19.5996 17.3883 19.5996 16.675V10.7231C19.5996 10.0099 19.9793 9.35078 20.5962 8.99299L25.946 5.89008C26.5666 5.53016 27.3324 5.53016 27.9529 5.89008L33.3028 8.99299C33.9196 9.35078 34.2993 10.0099 34.2993 10.7231V16.9696Z" fill="#EB7F00"/>
<path d="M10.3632 9.79108C10.6495 9.64208 10.8655 9.38606 10.9642 9.07869C11.0628 8.77131 11.0361 8.43742 10.8899 8.14961C10.7325 7.86851 10.4706 7.66074 10.1611 7.57132C9.85158 7.4819 9.51928 7.51803 9.2362 7.67187L4.33629 10.1218C4.13656 10.2253 3.96918 10.3818 3.8525 10.5741C3.73582 10.7664 3.67434 10.9871 3.67481 11.2121V16.112C3.67481 16.4368 3.80387 16.7484 4.03359 16.9781C4.26332 17.2079 4.5749 17.3369 4.89978 17.3369C5.22467 17.3369 5.53624 17.2079 5.76597 16.9781C5.9957 16.7484 6.12476 16.4368 6.12476 16.112V11.9593L10.3632 9.79108Z" fill="#EB7F00"/>
<path d="M26.3861 7.67187L21.4862 10.1218C21.2865 10.2253 21.1191 10.3818 21.0024 10.5741C20.8857 10.7664 20.8242 10.9871 20.8247 11.2121V16.112C20.8247 16.4368 20.9538 16.7484 21.1835 16.9781C21.4132 17.2079 21.7248 17.3369 22.0497 17.3369C22.3746 17.3369 22.6861 17.2079 22.9159 16.9781C23.1456 16.7484 23.2747 16.4368 23.2747 16.112V11.9593L27.5131 9.79108C27.7994 9.64208 28.0154 9.38606 28.1141 9.07869C28.2127 8.77131 28.186 8.43742 28.0398 8.14961C27.8824 7.86851 27.6205 7.66074 27.311 7.57132C27.0015 7.4819 26.6692 7.51803 26.3861 7.67187Z" fill="#EB7F00"/>
<path d="M17.8114 22.3716L12.9115 24.8828C12.7118 24.9863 12.5444 25.1427 12.4277 25.335C12.311 25.5273 12.2495 25.7481 12.25 25.973V30.8117C12.25 31.1365 12.3791 31.4481 12.6088 31.6779C12.8385 31.9076 13.1501 32.0366 13.475 32.0366C13.7999 32.0366 14.1114 31.9076 14.3412 31.6779C14.5709 31.4481 14.7 31.1365 14.7 30.8117V26.659L18.9384 24.4908C19.2247 24.3418 19.4407 24.0858 19.5394 23.7784C19.638 23.471 19.6113 23.1371 19.4651 22.8493C19.3077 22.5682 19.0458 22.3604 18.7363 22.271C18.4268 22.1816 18.0945 22.2177 17.8114 22.3716Z" fill="#EB7F00"/>
<path d="M49.4414 2V40" stroke="#EB7F00" stroke-width="2.44786" stroke-linecap="round"/>
<path d="M65.8458 32C65.6325 32 65.4618 31.936 65.3338 31.808C65.2058 31.68 65.1418 31.5093 65.1418 31.296V10.336C65.1418 10.1013 65.2058 9.92 65.3338 9.792C65.4618 9.664 65.6325 9.6 65.8458 9.6H66.4218C66.6565 9.6 66.8378 9.664 66.9658 9.792C67.0938 9.92 67.1578 10.1013 67.1578 10.336V19.68H79.5098V10.336C79.5098 10.1013 79.5738 9.92 79.7018 9.792C79.8298 9.664 80.0005 9.6 80.2138 9.6H80.7898C81.0245 9.6 81.2058 9.664 81.3338 9.792C81.4618 9.92 81.5258 10.1013 81.5258 10.336V31.296C81.5258 31.5093 81.4618 31.68 81.3338 31.808C81.2058 31.936 81.0245 32 80.7898 32H80.2138C80.0005 32 79.8298 31.936 79.7018 31.808C79.5738 31.68 79.5098 31.5093 79.5098 31.296V21.6H67.1578V31.296C67.1578 31.5093 67.0938 31.68 66.9658 31.808C66.8378 31.936 66.6565 32 66.4218 32H65.8458ZM87.836 32C87.6227 32 87.452 31.936 87.324 31.808C87.196 31.68 87.132 31.5093 87.132 31.296V16.064C87.132 15.8507 87.196 15.68 87.324 15.552C87.452 15.424 87.6227 15.36 87.836 15.36H88.38C88.5934 15.36 88.764 15.424 88.892 15.552C89.02 15.68 89.084 15.8507 89.084 16.064V31.296C89.084 31.5093 89.02 31.68 88.892 31.808C88.764 31.936 88.5934 32 88.38 32H87.836ZM87.484 11.936C87.2707 11.936 87.1 11.872 86.972 11.744C86.844 11.616 86.78 11.4453 86.78 11.232V10.016C86.78 9.80267 86.844 9.632 86.972 9.504C87.1 9.35467 87.2707 9.28 87.484 9.28H88.7C88.9134 9.28 89.084 9.35467 89.212 9.504C89.3614 9.632 89.436 9.80267 89.436 10.016V11.232C89.436 11.4453 89.3614 11.616 89.212 11.744C89.084 11.872 88.9134 11.936 88.7 11.936H87.484ZM99.985 32C99.6437 32 99.377 31.9253 99.185 31.776C99.0144 31.6267 98.8757 31.4347 98.769 31.2L92.881 16.352C92.8384 16.224 92.817 16.1067 92.817 16C92.817 15.8293 92.881 15.68 93.009 15.552C93.137 15.424 93.2864 15.36 93.457 15.36H94.129C94.3424 15.36 94.5024 15.424 94.609 15.552C94.737 15.6587 94.8117 15.7547 94.833 15.84L100.241 29.664L105.649 15.84C105.692 15.7547 105.766 15.6587 105.873 15.552C105.98 15.424 106.14 15.36 106.353 15.36H107.025C107.196 15.36 107.345 15.424 107.473 15.552C107.601 15.68 107.665 15.8293 107.665 16C107.665 16.1067 107.644 16.224 107.601 16.352L101.713 31.2C101.628 31.4347 101.489 31.6267 101.297 31.776C101.105 31.9253 100.838 32 100.497 32H99.985ZM117.027 32.32C114.957 32.32 113.315 31.648 112.099 30.304C110.883 28.9387 110.189 27.1573 110.019 24.96C109.997 24.64 109.987 24.2133 109.987 23.68C109.987 23.1467 109.997 22.72 110.019 22.4C110.125 20.9493 110.467 19.6693 111.043 18.56C111.619 17.4507 112.408 16.5867 113.411 15.968C114.435 15.3493 115.64 15.04 117.027 15.04C118.52 15.04 119.789 15.3707 120.835 16.032C121.88 16.6933 122.68 17.6427 123.235 18.88C123.811 20.1173 124.099 21.5893 124.099 23.296V23.776C124.099 23.9893 124.024 24.16 123.875 24.288C123.747 24.416 123.576 24.48 123.363 24.48H111.971C111.971 24.48 111.971 24.5227 111.971 24.608C111.971 24.6933 111.971 24.7573 111.971 24.8C112.013 25.76 112.237 26.6773 112.643 27.552C113.048 28.4053 113.624 29.1093 114.371 29.664C115.117 30.1973 116.003 30.464 117.027 30.464C117.944 30.464 118.701 30.3253 119.299 30.048C119.917 29.7707 120.408 29.472 120.771 29.152C121.133 28.8107 121.368 28.5547 121.475 28.384C121.667 28.1067 121.816 27.9467 121.923 27.904C122.029 27.84 122.2 27.808 122.435 27.808H122.947C123.139 27.808 123.299 27.872 123.427 28C123.576 28.1067 123.64 28.256 123.619 28.448C123.597 28.7467 123.427 29.12 123.107 29.568C122.808 29.9947 122.371 30.4213 121.795 30.848C121.24 31.2747 120.557 31.6267 119.747 31.904C118.936 32.1813 118.029 32.32 117.027 32.32ZM111.971 22.688H122.147V22.56C122.147 21.4933 121.944 20.5333 121.539 19.68C121.133 18.8267 120.547 18.1547 119.779 17.664C119.011 17.152 118.093 16.896 117.027 16.896C115.96 16.896 115.043 17.152 114.275 17.664C113.528 18.1547 112.952 18.8267 112.547 19.68C112.163 20.5333 111.971 21.4933 111.971 22.56V22.688Z" fill="white"/>
</svg>
