<svg width="34" height="34" viewBox="0 0 38 42" fill="none" xmlns="http://www.w3.org/2000/svg">
    <path d="M36.7493 9.31434C36.7493 8.60122 36.3696 7.94206 35.7527 7.58427L27.9529 3.06039C27.3324 2.70047 26.5666 2.70047 25.946 3.06039L18.3746 7.4518L10.8032 3.06039C10.1827 2.70047 9.41691 2.70047 8.79637 3.06039L0.996563 7.58427C0.379698 7.94206 0 8.60122 0 9.31434V18.3785C0 19.0913 0.379412 19.7503 0.995906 20.1082L8.67283 24.5647V32.7575C8.67283 33.4715 9.0535 34.1314 9.67162 34.4888L17.3715 38.9416C17.992 39.3004 18.7569 39.2997 19.3768 38.9399L27.0438 34.4894C27.6603 34.1315 28.0397 33.4725 28.0397 32.7597V24.6015L35.7556 20.1086C36.3709 19.7504 36.7493 19.0922 36.7493 18.3803V9.31434ZM2.44995 10.7231C2.44995 10.0099 2.82965 9.35078 3.44652 8.99299L8.79637 5.89008C9.41691 5.53016 10.1827 5.53016 10.8032 5.89008L16.1531 8.99299C16.77 9.35078 17.1497 10.0099 17.1497 10.7231V16.6264C17.1497 17.3395 16.77 17.9986 16.1533 18.3564L10.5092 21.6307C9.88867 21.9906 9.1229 21.9907 8.50232 21.6309L3.44669 18.6993C2.82973 18.3415 2.44995 17.6823 2.44995 16.9691V10.7231ZM19.3802 36.1051C18.7586 36.4679 17.9901 36.4687 17.3678 36.1073L12.1553 33.0807C11.5389 32.7228 11.1595 32.0639 11.1595 31.3511V25.6025C11.1595 24.8915 11.537 24.234 12.1509 23.8755L17.3693 20.8277C17.9907 20.4648 18.7592 20.4637 19.3817 20.8248L24.5567 23.8274C25.1734 24.1852 25.553 24.8443 25.553 25.5573V31.3541C25.553 32.0653 25.1753 32.723 24.5611 33.0814L19.3802 36.1051ZM34.2993 16.9696C34.2993 17.6825 33.9198 18.3416 33.3032 18.6994L28.21 21.655C27.5896 22.0151 26.8238 22.0153 26.2031 21.6555L20.5965 18.4053C19.9795 18.0475 19.5996 17.3883 19.5996 16.675V10.7231C19.5996 10.0099 19.9793 9.35078 20.5962 8.99299L25.946 5.89008C26.5666 5.53016 27.3324 5.53016 27.9529 5.89008L33.3028 8.99299C33.9196 9.35078 34.2993 10.0099 34.2993 10.7231V16.9696Z"
          fill="#EB7F00"/>
    <path d="M10.3632 9.79108C10.6495 9.64208 10.8655 9.38606 10.9642 9.07869C11.0628 8.77131 11.0361 8.43742 10.8899 8.14961C10.7325 7.86851 10.4706 7.66074 10.1611 7.57132C9.85158 7.4819 9.51928 7.51803 9.2362 7.67187L4.33629 10.1218C4.13656 10.2253 3.96918 10.3818 3.8525 10.5741C3.73582 10.7664 3.67434 10.9871 3.67481 11.2121V16.112C3.67481 16.4368 3.80387 16.7484 4.03359 16.9781C4.26332 17.2079 4.5749 17.3369 4.89978 17.3369C5.22467 17.3369 5.53624 17.2079 5.76597 16.9781C5.9957 16.7484 6.12476 16.4368 6.12476 16.112V11.9593L10.3632 9.79108Z"
          fill="#EB7F00"/>
    <path d="M26.3861 7.67187L21.4862 10.1218C21.2865 10.2253 21.1191 10.3818 21.0024 10.5741C20.8857 10.7664 20.8242 10.9871 20.8247 11.2121V16.112C20.8247 16.4368 20.9538 16.7484 21.1835 16.9781C21.4132 17.2079 21.7248 17.3369 22.0497 17.3369C22.3746 17.3369 22.6861 17.2079 22.9159 16.9781C23.1456 16.7484 23.2747 16.4368 23.2747 16.112V11.9593L27.5131 9.79108C27.7994 9.64208 28.0154 9.38606 28.1141 9.07869C28.2127 8.77131 28.186 8.43742 28.0398 8.14961C27.8824 7.86851 27.6205 7.66074 27.311 7.57132C27.0015 7.4819 26.6692 7.51803 26.3861 7.67187Z"
          fill="#EB7F00"/>
    <path d="M17.8114 22.3716L12.9115 24.8828C12.7118 24.9863 12.5444 25.1427 12.4277 25.335C12.311 25.5273 12.2495 25.7481 12.25 25.973V30.8117C12.25 31.1365 12.3791 31.4481 12.6088 31.6779C12.8385 31.9076 13.1501 32.0366 13.475 32.0366C13.7999 32.0366 14.1114 31.9076 14.3412 31.6779C14.5709 31.4481 14.7 31.1365 14.7 30.8117V26.659L18.9384 24.4908C19.2247 24.3418 19.4407 24.0858 19.5394 23.7784C19.638 23.471 19.6113 23.1371 19.4651 22.8493C19.3077 22.5682 19.0458 22.3604 18.7363 22.271C18.4268 22.1816 18.0945 22.2177 17.8114 22.3716Z" fill="#EB7F00"/>
</svg>
