<svg width="18" height="17" viewBox="0 0 18 17" fill="none" xmlns="http://www.w3.org/2000/svg">
    <path d="M9.25881 13.8467L9.0008 13.6912L8.7428 13.8467L4.5928 16.3467L4.59272 16.3465L4.58236 16.3531C4.48312 16.4163 4.39923 16.4335 4.31732 16.4267C4.20828 16.4176 4.12681 16.384 4.05777 16.3303C3.97045 16.2624 3.90273 16.1787 3.85227 16.0731C3.82438 16.0143 3.80956 15.9359 3.8379 15.8128C3.83793 15.8127 3.83797 15.8125 3.838 15.8124L4.93778 11.0883L5.00628 10.7941L4.77768 10.5966L1.10697 7.4253C1.00936 7.33649 0.96857 7.25588 0.952604 7.18172L0.952608 7.18172L0.952175 7.17975C0.930405 7.08058 0.936564 6.9897 0.970699 6.89582C1.01153 6.78353 1.06642 6.70692 1.13006 6.65124C1.16909 6.61708 1.24897 6.57132 1.40918 6.54675L6.24445 6.12304L6.54459 6.09674L6.66157 5.8191L8.53657 1.3691L8.53734 1.36726C8.58146 1.26137 8.63953 1.20033 8.71152 1.15928L8.71223 1.15887C8.81886 1.09782 8.91298 1.07495 9.0008 1.07495C9.08858 1.07495 9.18318 1.0978 9.29071 1.15906C9.36195 1.19993 9.41998 1.26097 9.46426 1.36726L9.46503 1.3691L11.34 5.8191L11.457 6.09674L11.7572 6.12304L16.5924 6.54675C16.7526 6.57132 16.8325 6.61708 16.8715 6.65124C16.9352 6.70691 16.9901 6.78353 17.0309 6.89583C17.0652 6.99003 17.0716 7.08127 17.0503 7.18052C17.0338 7.25536 16.9924 7.33639 16.8946 7.42531L13.2239 10.5966L12.9953 10.7941L13.0638 11.0883L14.1636 15.8124C14.1637 15.8126 14.1637 15.8128 14.1637 15.813C14.192 15.9359 14.1772 16.0142 14.1494 16.0729C14.0989 16.1786 14.0312 16.2623 13.9438 16.3303C13.8748 16.384 13.7933 16.4176 13.6843 16.4267C13.6024 16.4335 13.5185 16.4163 13.4192 16.3531L13.4193 16.353L13.4088 16.3467L9.25881 13.8467Z"
          stroke="#F5C827" fill="#F5C827"/>
</svg>
