<svg width="16" height="16" viewBox="0 0 20 20" fill="none" xmlns="http://www.w3.org/2000/svg">
<path d="M9.99951 4.6875C8.9488 4.6875 7.92168 4.99907 7.04805 5.58282C6.17441 6.16656 5.49349 6.99626 5.0914 7.96699C4.68931 8.93773 4.58411 10.0059 4.78909 11.0364C4.99407 12.0669 5.50004 13.0135 6.24301 13.7565C6.98597 14.4995 7.93257 15.0054 8.96309 15.2104C9.99362 15.4154 11.0618 15.3102 12.0325 14.9081C13.0033 14.506 13.833 13.8251 14.4167 12.9515C15.0004 12.0778 15.312 11.0507 15.312 10C15.3099 8.59167 14.7496 7.24162 13.7537 6.24578C12.7579 5.24994 11.4078 4.68957 9.99951 4.6875ZM9.37451 2.8125V1.25C9.37451 1.08424 9.44036 0.925268 9.55757 0.808058C9.67478 0.690848 9.83375 0.625 9.99951 0.625C10.1653 0.625 10.3242 0.690848 10.4415 0.808058C10.5587 0.925268 10.6245 1.08424 10.6245 1.25V2.8125C10.6245 2.97826 10.5587 3.13723 10.4415 3.25444C10.3242 3.37165 10.1653 3.4375 9.99951 3.4375C9.83375 3.4375 9.67478 3.37165 9.55757 3.25444C9.44036 3.13723 9.37451 2.97826 9.37451 2.8125ZM3.3667 4.25781C3.29842 4.20177 3.24263 4.13206 3.20292 4.05316C3.1632 3.97426 3.14045 3.88792 3.13611 3.79969C3.13178 3.71147 3.14597 3.62331 3.17776 3.5409C3.20955 3.45849 3.25824 3.38365 3.3207 3.32119C3.38316 3.25873 3.458 3.21004 3.54041 3.17824C3.62283 3.14645 3.71098 3.13227 3.79921 3.1366C3.88743 3.14093 3.97377 3.16369 4.05267 3.2034C4.13157 3.24312 4.20129 3.29891 4.25732 3.36719L5.35889 4.47656C5.47577 4.59373 5.54141 4.75247 5.54141 4.91797C5.54141 5.08347 5.47577 5.24221 5.35889 5.35938C5.24074 5.47439 5.08237 5.53874 4.91748 5.53874C4.7526 5.53874 4.59422 5.47439 4.47607 5.35938L3.3667 4.25781ZM2.81201 10.625H1.24951C1.08375 10.625 0.92478 10.5592 0.80757 10.4419C0.69036 10.3247 0.624512 10.1658 0.624512 10C0.624512 9.83424 0.69036 9.67527 0.80757 9.55806C0.92478 9.44085 1.08375 9.375 1.24951 9.375H2.81201C2.97777 9.375 3.13674 9.44085 3.25395 9.55806C3.37116 9.67527 3.43701 9.83424 3.43701 10C3.43701 10.1658 3.37116 10.3247 3.25395 10.4419C3.13674 10.5592 2.97777 10.625 2.81201 10.625ZM5.35889 14.6406C5.47577 14.7578 5.54141 14.9165 5.54141 15.082C5.54141 15.2475 5.47577 15.4063 5.35889 15.5234L4.25732 16.6328C4.13735 16.7475 3.97797 16.8118 3.81201 16.8125C3.64636 16.8102 3.48753 16.7462 3.3667 16.6328C3.24934 16.5143 3.1835 16.3543 3.1835 16.1875C3.1835 16.0207 3.24934 15.8607 3.3667 15.7422L4.47607 14.6406C4.59324 14.5237 4.75198 14.4581 4.91748 14.4581C5.08298 14.4581 5.24172 14.5237 5.35889 14.6406ZM10.6245 17.1875V18.75C10.6245 18.9158 10.5587 19.0747 10.4415 19.1919C10.3242 19.3092 10.1653 19.375 9.99951 19.375C9.83375 19.375 9.67478 19.3092 9.55757 19.1919C9.44036 19.0747 9.37451 18.9158 9.37451 18.75V17.1875C9.37451 17.0217 9.44036 16.8628 9.55757 16.7456C9.67478 16.6283 9.83375 16.5625 9.99951 16.5625C10.1653 16.5625 10.3242 16.6283 10.4415 16.7456C10.5587 16.8628 10.6245 17.0217 10.6245 17.1875ZM16.6323 15.7422C16.7497 15.8607 16.8155 16.0207 16.8155 16.1875C16.8155 16.3543 16.7497 16.5143 16.6323 16.6328C16.5115 16.7462 16.3527 16.8102 16.187 16.8125C16.0211 16.8118 15.8617 16.7475 15.7417 16.6328L14.6401 15.5234C14.5324 15.4045 14.4745 15.2488 14.4785 15.0884C14.4824 14.928 14.5479 14.7753 14.6614 14.6618C14.7748 14.5484 14.9275 14.4829 15.0879 14.479C15.2483 14.475 15.4041 14.5329 15.523 14.6406L16.6323 15.7422ZM19.3745 10C19.3745 10.1658 19.3087 10.3247 19.1915 10.4419C19.0742 10.5592 18.9153 10.625 18.7495 10.625H17.187C17.0213 10.625 16.8623 10.5592 16.7451 10.4419C16.6279 10.3247 16.562 10.1658 16.562 10C16.562 9.83424 16.6279 9.67527 16.7451 9.55806C16.8623 9.44085 17.0213 9.375 17.187 9.375H18.7495C18.9153 9.375 19.0742 9.44085 19.1915 9.55806C19.3087 9.67527 19.3745 9.83424 19.3745 10ZM14.6401 5.35938C14.5233 5.24221 14.4576 5.08347 14.4576 4.91797C14.4576 4.75247 14.5233 4.59373 14.6401 4.47656L15.7417 3.36719C15.8631 3.26752 16.0173 3.21659 16.1742 3.2243C16.3311 3.232 16.4795 3.2978 16.5906 3.40888C16.7017 3.51997 16.7675 3.6684 16.7752 3.82531C16.7829 3.98221 16.732 4.13638 16.6323 4.25781L15.523 5.35938C15.4048 5.47439 15.2464 5.53874 15.0815 5.53874C14.9167 5.53874 14.7583 5.47439 14.6401 5.35938Z" fill="white"/>
</svg>
