<svg width="31" height="30" viewBox="0 0 31 30" fill="none" xmlns="http://www.w3.org/2000/svg">
<path d="M3.99805 6H27.998V24H3.99805V6Z" fill="#2D3039"/>
<path d="M12.8593 0.00375016L13.7705 0H18.2255L19.138 0.00375016L20.2805 0.0162507L20.8218 0.025001L21.3443 0.0387516L21.848 0.0562523L22.333 0.0762532L22.8005 0.102504L23.2505 0.133756L23.6818 0.171257L24.098 0.212509C26.273 0.457519 27.7643 0.982541 28.8893 2.10759C30.0143 3.23263 30.5393 4.7227 30.7843 6.89904L30.8268 7.31531L30.863 7.74782L30.8943 8.19784L30.9193 8.66411L30.9505 9.39914L30.9655 9.91166L30.9818 10.7167L30.993 11.8605L30.998 13.0855L30.9968 17.227L30.993 18.1395L30.9805 19.2821L30.9718 19.8233L30.958 20.3458L30.9405 20.8496L30.9205 21.3346L30.8943 21.8022L30.863 22.2522L30.8255 22.6834L30.7843 23.0997C30.5393 25.2748 30.0143 26.7661 28.8893 27.8912C27.7643 29.0162 26.2743 29.5412 24.098 29.7862L23.6818 29.8287L23.2493 29.865L22.7993 29.8962L22.333 29.9212L21.598 29.9525L21.0855 29.9675L20.2805 29.9837L19.1368 29.995L17.9118 30L13.7705 29.9988L12.858 29.995L11.7155 29.9825L11.1743 29.9738L10.6518 29.96L10.148 29.9425L9.66305 29.9225L9.19555 29.8962L8.74555 29.865L8.3143 29.8275L7.89805 29.7862C5.72305 29.5412 4.2318 29.0162 3.1068 27.8912C1.9818 26.7661 1.4568 25.2761 1.2118 23.0997L1.1693 22.6834L1.13305 22.2509L1.1018 21.8009L1.0768 21.3346L1.04555 20.5996L1.03055 20.0871L1.0143 19.2821L1.00305 18.1383L0.998047 16.9132L0.999297 12.7718L1.00305 11.8592L1.01555 10.7167L1.0243 10.1754L1.03805 9.6529L1.05555 9.14913L1.07555 8.66411L1.1018 8.19659L1.13305 7.74657L1.17055 7.31531L1.2118 6.89904C1.4568 4.72395 1.9818 3.23263 3.1068 2.10759C4.2318 0.982541 5.7218 0.457519 7.89805 0.212509L8.3143 0.170007L8.7468 0.133756L9.1968 0.102504L9.66305 0.0775032L10.398 0.0462519L10.9105 0.0312513L11.7155 0.0150006L12.8593 0.00375016ZM9.48555 9.12413H6.06055C6.22305 16.9245 10.123 21.6122 16.9605 21.6122H17.348V17.1495C19.8605 17.3995 21.7605 19.2371 22.523 21.6122H26.073C25.098 18.062 22.5355 16.0994 20.9355 15.3494C22.5355 14.4243 24.7855 12.1743 25.323 9.12413H22.098C21.398 11.5992 19.323 13.8493 17.348 14.0618V9.12413H14.123V17.7745C12.123 17.2745 9.59805 14.8494 9.48555 9.12413Z" fill="white"/>
</svg>
