<svg width="37" height="25" viewBox="0 0 37 25" fill="none" xmlns="http://www.w3.org/2000/svg">
<path d="M11.6686 6.66667H25.002V18.3333H11.6686V6.66667Z" fill="none"/>
<path d="M18.4533 0H18.6573C20.5412 0.00667319 30.0865 0.0734054 32.6602 0.745173C33.4383 0.950193 34.1473 1.34981 34.7164 1.9041C35.2854 2.45839 35.6947 3.14793 35.9032 3.90382C36.1346 4.74909 36.2973 5.86796 36.4074 7.02242L36.4303 7.25376L36.4807 7.8321L36.499 8.06344C36.648 10.0965 36.6663 12.0006 36.6686 12.4166V12.5834C36.6663 13.0149 36.6457 15.048 36.4807 17.1657L36.4624 17.3992L36.4417 17.6306C36.3271 18.9029 36.1575 20.1664 35.9032 21.0962C35.6953 21.8524 35.2863 22.5422 34.7171 23.0966C34.1479 23.651 33.4386 24.0504 32.6602 24.2548C30.0017 24.9488 19.8972 24.9978 18.4969 25H18.1714C17.4633 25 14.5343 24.9867 11.4633 24.8843L11.0737 24.871L10.8743 24.8621L10.0905 24.8309C7.54659 24.7219 5.12415 24.5462 4.00804 24.2526C3.22994 24.0484 2.5208 23.6493 1.95165 23.0953C1.3825 22.5414 0.97333 21.852 0.765126 21.0962C0.510735 20.1686 0.341141 18.9029 0.22655 17.6306L0.189882 17.1657C0.0767752 15.6584 0.0140994 14.148 0.00195312 12.6368V12.3632C0.00653675 11.885 0.0248712 10.2322 0.148629 8.40822L0.164672 8.17911L0.171547 8.06344L0.189882 7.8321L0.240301 7.25376L0.263219 7.02242C0.373226 5.86796 0.535945 4.74686 0.767418 3.90382C0.97527 3.14763 1.38429 2.45776 1.95346 1.90338C2.52263 1.34899 3.23196 0.949578 4.01033 0.745173C5.12644 0.456002 7.54888 0.278049 10.0928 0.16683L10.4824 0.151259L11.0737 0.13124L11.4656 0.115669C13.6467 0.0475459 15.8287 0.00972699 18.011 0.0022245H18.4533V0ZM14.6695 7.14031V17.8575L24.1966 12.5011L14.6695 7.14031Z" fill="white"/>
</svg>
